# xmcd
#
# Track frame offsets: 
#        150
#        20734
#        38458
#        59533
#        74986
#        92507
#        109985
#        130117
#        149500
#        167613
#        185601
#        200634
#        218092
#        236845
#        256992
#        279570
#
# Disc length: 4019 seconds
#
# Revision: 2
# Processed by: cddbd v1.5.2PL0 Copyright (c) Steve Scherf et al.
# Submitted via: ExactAudioCopy v1.1
#
DISCID=fa0fb110
DTITLE=薬師丸ひろ子 - 歌 物語 Disc.1
DYEAR=2011
DGENRE=JPop
TTITLE0=セーラー服と機関銃
TTITLE1=探偵物語
TTITLE2=すこしだけ　やさしく
TTITLE3=メイン・テーマ
TTITLE4=Woman"Wの悲劇"より
TTITLE5=あなたを・もっと・知りたくて
TTITLE6=すてきな恋の忘れ方
TTITLE7=ささやきのステップ
TTITLE8=瞳で話して
TTITLE9=紳士同盟
TTITLE10=ハードデイズ　ラグ
TTITLE11=時代
TTITLE12=語りつぐ愛に
TTITLE13=風に乗って
TTITLE14=夕暮れを止めて
TTITLE15=僕の宝物
EXTD=
EXTT0=
EXTT1=
EXTT2=
EXTT3=
EXTT4=
EXTT5=
EXTT6=
EXTT7=
EXTT8=
EXTT9=
EXTT10=
EXTT11=
EXTT12=
EXTT13=
EXTT14=
EXTT15=
PLAYORDER=
